<?xml version="1.0" ?><svg height="24" id="svg3171" version="1.1" viewBox="0 0 6.3499999 6.3500002" width="24" xmlns="http://www.w3.org/2000/svg" xmlns:cc="http://creativecommons.org/ns#" xmlns:dc="http://purl.org/dc/elements/1.1/" xmlns:inkscape="http://www.inkscape.org/namespaces/inkscape" xmlns:rdf="http://www.w3.org/1999/02/22-rdf-syntax-ns#" xmlns:sodipodi="http://sodipodi.sourceforge.net/DTD/sodipodi-0.dtd" xmlns:svg="http://www.w3.org/2000/svg"><defs id="defs3165"/><g id="layer1"><path d="m 3.9690868,0.52916664 c -0.4352859,0 -0.7927948,0.35802584 -0.7927948,0.79331046 0,0.4352848 0.3575089,0.794861 0.7927948,0.794861 0.435284,0 0.792793,-0.3595762 0.792793,-0.794861 0,-0.43528462 -0.357509,-0.79331046 -0.792793,-0.79331046 z M 2.3809149,2.1173381 c -0.435286,0 -0.792795,0.357509 -0.792795,0.7927936 0,0.3425969 0.222608,0.6358483 0.529219,0.7462801 v 0.049098 c 0,0.099357 0.03471,0.1879968 0.08528,0.2635756 H 1.8516959 C 1.1485169,3.9784661 0.52916691,4.233694 0.52916691,5.0280383 v 0.2635758 c 0.06087,0.3795776 0.264609,0.5297342 0.61759299,0.529218 H 3.615585 C 3.9690858,5.8213613 4.138889,5.5816517 4.2326608,5.2916136 V 5.028038 c 0,-0.3171272 -0.1207059,-0.6113992 -0.355567,-0.7953777 H 5.2037567 C 5.5567408,4.2336922 5.727055,3.9940688 5.8208328,3.7055092 V 3.4398668 C 5.821362,2.6460394 5.1412889,2.3854311 4.4983038,2.3809135 h -1.058436 c -0.1598999,0 -0.3046699,0.014724 -0.4382589,0.041862 C 2.8553469,2.2385327 2.6319599,2.1173381 2.3809149,2.1173381 Z" id="path1863" style="color:#ffffff;font-style:normal;font-variant:normal;font-weight:normal;font-stretch:normal;font-size:medium;line-height:normal;font-family:sans-serif;font-variant-ligatures:normal;font-variant-position:normal;font-variant-caps:normal;font-variant-numeric:normal;font-variant-alternates:normal;font-variant-east-asian:normal;font-feature-settings:normal;font-variation-settings:normal;text-indent:0;text-align:start;text-decoration:none;text-decoration-line:none;text-decoration-style:solid;text-decoration-color:#ffffff;letter-spacing:normal;word-spacing:normal;text-transform:none;writing-mode:lr-tb;direction:ltr;text-orientation:mixed;dominant-baseline:auto;baseline-shift:baseline;text-anchor:start;white-space:normal;shape-padding:0;shape-margin:0;inline-size:0;clip-rule:nonzero;display:inline;overflow:visible;visibility:visible;opacity:1;isolation:auto;mix-blend-mode:normal;color-interpolation:sRGB;color-interpolation-filters:linearRGB;solid-color:#ffffff;solid-opacity:1;vector-effect:none;fill:#C79A5C;fill-opacity:1;fill-rule:nonzero;stroke:none;stroke-width:0.52922;stroke-linecap:round;stroke-linejoin:round;stroke-miterlimit:4;stroke-dasharray:none;stroke-dashoffset:0;stroke-opacity:1;color-rendering:auto;image-rendering:auto;shape-rendering:auto;text-rendering:auto;enable-background:accumulate;stop-color:#ffffff;stop-opacity:1"/></g></svg>