<?xml version="1.0" ?><svg height="24" id="svg3171" version="1.1" viewBox="0 0 6.3499999 6.3500002" width="24" xmlns="http://www.w3.org/2000/svg" xmlns:cc="http://creativecommons.org/ns#" xmlns:dc="http://purl.org/dc/elements/1.1/" xmlns:inkscape="http://www.inkscape.org/namespaces/inkscape" xmlns:rdf="http://www.w3.org/1999/02/22-rdf-syntax-ns#" xmlns:sodipodi="http://sodipodi.sourceforge.net/DTD/sodipodi-0.dtd" xmlns:svg="http://www.w3.org/2000/svg"><defs id="defs3165"/><g id="layer1"><path d="m 0.79393046,0.52916881 a 0.26450578,0.26463485 0 0 0 -0.26553919,0.263601 V 5.5551609 A 0.26453223,0.26466131 0 0 0 0.79393046,5.8208287 H 4.7615149 5.5539987 A 0.26450578,0.26463485 0 0 0 5.820054,5.5551609 V 4.2325038 A 0.26453223,0.26466131 0 0 0 5.5539987,3.9689028 H 4.7615149 A 0.26453223,0.26466131 0 0 0 4.4959761,4.2325038 V 5.2915589 H 4.2325036 V 2.6446958 A 0.26453223,0.26466131 0 0 0 3.9669649,2.3810948 H 3.1739646 A 0.26453223,0.26466131 0 0 0 2.9084258,2.6446958 V 5.2915589 H 2.6449533 V 1.0584378 A 0.26453223,0.26466131 0 0 0 2.3814808,0.79276981 H 1.5864141 A 0.26453223,0.26466131 0 0 0 1.3229417,1.0584378 V 5.2915589 H 1.0574029 V 0.79276981 a 0.26450578,0.26463485 0 0 0 -0.26347244,-0.263601 z" id="path2043" style="color:#ffffff;font-style:normal;font-variant:normal;font-weight:normal;font-stretch:normal;font-size:medium;line-height:normal;font-family:sans-serif;font-variant-ligatures:normal;font-variant-position:normal;font-variant-caps:normal;font-variant-numeric:normal;font-variant-alternates:normal;font-variant-east-asian:normal;font-feature-settings:normal;font-variation-settings:normal;text-indent:0;text-align:start;text-decoration:none;text-decoration-line:none;text-decoration-style:solid;text-decoration-color:#ffffff;letter-spacing:normal;word-spacing:normal;text-transform:none;writing-mode:lr-tb;direction:ltr;text-orientation:mixed;dominant-baseline:auto;baseline-shift:baseline;text-anchor:start;white-space:normal;shape-padding:0;shape-margin:0;inline-size:0;clip-rule:nonzero;display:inline;overflow:visible;visibility:visible;opacity:1;isolation:auto;mix-blend-mode:normal;color-interpolation:sRGB;color-interpolation-filters:linearRGB;solid-color:#ffffff;solid-opacity:1;vector-effect:none;fill:#C79A5C;fill-opacity:1;fill-rule:nonzero;stroke:none;stroke-width:0.529139;stroke-linecap:round;stroke-linejoin:round;stroke-miterlimit:4;stroke-dasharray:none;stroke-dashoffset:0;stroke-opacity:1;color-rendering:auto;image-rendering:auto;shape-rendering:auto;text-rendering:auto;enable-background:accumulate;stop-color:#ffffff;stop-opacity:1"/></g></svg>