<?xml version="1.0" ?><svg height="24" id="svg3171" version="1.1" viewBox="0 0 6.3499999 6.3500002" width="24" xmlns="http://www.w3.org/2000/svg" xmlns:cc="http://creativecommons.org/ns#" xmlns:dc="http://purl.org/dc/elements/1.1/" xmlns:inkscape="http://www.inkscape.org/namespaces/inkscape" xmlns:rdf="http://www.w3.org/1999/02/22-rdf-syntax-ns#" xmlns:sodipodi="http://sodipodi.sourceforge.net/DTD/sodipodi-0.dtd" xmlns:svg="http://www.w3.org/2000/svg"><defs id="defs3165"/><g id="layer1"><path d="m 2.3882671,0.5294196 a 0.2646162,0.26449668 0 0 0 -0.01344,0.00103 0.2646162,0.26449668 0 0 0 -0.06667,0.015498 C 1.128877,0.9817038 0.39950202,2.1741792 0.54835902,3.4223503 0.69721402,4.6705214 1.6848161,5.6560636 2.933521,5.8023025 4.1822251,5.9485414 5.3712301,5.2171079 5.8045019,4.037098 A 0.2646162,0.26449668 0 0 0 5.6484181,3.6976953 0.2646162,0.26449668 0 0 0 5.3083471,3.8557735 C 4.9584081,4.8088249 4.0043769,5.3950125 2.996057,5.2769255 1.9877371,5.1588388 1.193685,4.3679711 1.073456,3.3598425 0.95322803,2.3517134 1.5377951,1.3937583 2.4900821,1.0418816 A 0.2646162,0.26449668 0 0 0 2.6482311,0.7024789 0.2646162,0.26449668 0 0 0 2.3882671,0.5294196 Z m 1.066733,0.00723 c -0.299712,-0.032113 -0.549447,0.2199636 -0.548871,0.505229 l 0.0036,2.1345694 c 5.159e-4,0.1461228 0.119461,0.2640251 0.2656491,0.2634636 l 2.1060749,0.00362 C 5.8217761,3.4397559 5.798815,2.8814756 5.798815,2.8814756 5.7328311,2.2857115 5.468524,1.7263306 5.0426961,1.2981126 4.6141661,0.8671739 4.052502,0.6006707 3.4550001,0.5366526 Z" id="path1913" style="color:#000000;font-style:normal;font-variant:normal;font-weight:normal;font-stretch:normal;font-size:medium;line-height:normal;font-family:sans-serif;font-variant-ligatures:normal;font-variant-position:normal;font-variant-caps:normal;font-variant-numeric:normal;font-variant-alternates:normal;font-variant-east-asian:normal;font-feature-settings:normal;font-variation-settings:normal;text-indent:0;text-align:start;text-decoration:none;text-decoration-line:none;text-decoration-style:solid;text-decoration-color:#000000;letter-spacing:normal;word-spacing:normal;text-transform:none;writing-mode:lr-tb;direction:ltr;text-orientation:mixed;dominant-baseline:auto;baseline-shift:baseline;text-anchor:start;white-space:normal;shape-padding:0;shape-margin:0;inline-size:0;clip-rule:nonzero;display:inline;overflow:visible;visibility:visible;opacity:1;isolation:auto;mix-blend-mode:normal;color-interpolation:sRGB;color-interpolation-filters:linearRGB;solid-color:#000000;solid-opacity:1;vector-effect:none;fill:#C79A5C;fill-opacity:1;fill-rule:nonzero;stroke:none;stroke-width:0.529111;stroke-linecap:round;stroke-linejoin:round;stroke-miterlimit:4;stroke-dasharray:none;stroke-dashoffset:0;stroke-opacity:1;color-rendering:auto;image-rendering:auto;shape-rendering:auto;text-rendering:auto;enable-background:accumulate;stop-color:#000000;stop-opacity:1"/></g></svg>