<?xml version="1.0" ?><svg height="24" id="svg3171" version="1.1" viewBox="0 0 6.3499999 6.3500002" width="24" xmlns="http://www.w3.org/2000/svg" xmlns:cc="http://creativecommons.org/ns#" xmlns:dc="http://purl.org/dc/elements/1.1/" xmlns:inkscape="http://www.inkscape.org/namespaces/inkscape" xmlns:rdf="http://www.w3.org/1999/02/22-rdf-syntax-ns#" xmlns:sodipodi="http://sodipodi.sourceforge.net/DTD/sodipodi-0.dtd" xmlns:svg="http://www.w3.org/2000/svg"><defs id="defs3165"/><g id="layer1"><path d="m 2.910701,0.52916673 c -0.146105,1.5e-5 -0.2645429,0.1184756 -0.2645575,0.26460911 V 1.7462651 L 2.3810694,1.4785553 V 2.6465562 L 3.439816,2.6460403 c 0.1767232,0 0.2645574,0.1073555 0.2645574,0.2790797 V 3.1757743 H 2.1175452 C 1.9708804,3.1761447 1.8520882,3.0568252 1.852471,2.9101318 V 1.3235108 H 0.79475771 C 0.64865212,1.3229551 0.52975052,1.4409525 0.52916652,1.5870863 v 3.9701698 c 5.82e-4,0.1461336 0.1194856,0.2641328 0.26559119,0.2635753 H 3.4392993 C 3.5852035,5.821096 3.7037895,5.7031876 3.7043734,5.5572561 v -0.529735 h 1.8519027 c 0.146105,-1.45e-5 0.2645428,-0.1184756 0.2645574,-0.264609 V 2.3819472 H 4.2340052 C 4.0873403,2.38233 3.9685482,2.2635147 3.9689311,2.1168212 V 0.52916673 c -0.3527433,0 -0.7054869,0 -1.0582301,0 z m 1.5868284,0.1555613 V 1.8527289 h 1.155889 z" id="path1127" style="color:#ffffff;font-style:normal;font-variant:normal;font-weight:normal;font-stretch:normal;font-size:medium;line-height:normal;font-family:sans-serif;font-variant-ligatures:normal;font-variant-position:normal;font-variant-caps:normal;font-variant-numeric:normal;font-variant-alternates:normal;font-variant-east-asian:normal;font-feature-settings:normal;font-variation-settings:normal;text-indent:0;text-align:start;text-decoration:none;text-decoration-line:none;text-decoration-style:solid;text-decoration-color:#ffffff;letter-spacing:normal;word-spacing:normal;text-transform:none;writing-mode:lr-tb;direction:ltr;text-orientation:mixed;dominant-baseline:auto;baseline-shift:baseline;text-anchor:start;white-space:normal;shape-padding:0;shape-margin:0;inline-size:0;clip-rule:nonzero;display:inline;overflow:visible;visibility:visible;isolation:auto;mix-blend-mode:normal;color-interpolation:sRGB;color-interpolation-filters:linearRGB;solid-color:#ffffff;solid-opacity:1;vector-effect:none;fill:#C79A5C;fill-opacity:1;fill-rule:nonzero;stroke:none;stroke-width:0.529;stroke-linecap:round;stroke-linejoin:round;stroke-miterlimit:4;stroke-dasharray:none;stroke-dashoffset:0;stroke-opacity:1;color-rendering:auto;image-rendering:auto;shape-rendering:auto;text-rendering:auto;enable-background:accumulate;stop-color:#ffffff"/></g></svg>