<?xml version="1.0" ?><svg height="24" id="svg3171" version="1.1" viewBox="0 0 6.3499999 6.3500002" width="24" xmlns="http://www.w3.org/2000/svg" xmlns:cc="http://creativecommons.org/ns#" xmlns:dc="http://purl.org/dc/elements/1.1/" xmlns:inkscape="http://www.inkscape.org/namespaces/inkscape" xmlns:rdf="http://www.w3.org/1999/02/22-rdf-syntax-ns#" xmlns:sodipodi="http://sodipodi.sourceforge.net/DTD/sodipodi-0.dtd" xmlns:svg="http://www.w3.org/2000/svg"><defs id="defs3165"/><g id="layer1"><path d="m 0.79277012,0.52916782 c -0.146148,5.82e-4 -0.264158,0.119489 -0.263601,0.265599 V 3.9685198 c -5.56e-4,0.146109 0.117453,0.265014 0.263601,0.265598 0.55476798,0 1.10953708,0 1.66430508,0 L 1.1499241,5.3549047 c -0.111061,0.09502 -0.124021,0.262073 -0.02895,0.3730789 0.0949,0.111189 0.262003,0.1243782 0.373177,0.02946 L 3.173962,4.3178338 4.8537719,5.7574436 c 0.111175,0.09492 0.2782793,0.08174 0.3731771,-0.02946 0.09546,-0.1105929 0.08319,-0.2776059 -0.02739,-0.3730789 L 3.8913741,4.2341178 c 0.5545961,0 1.1091918,0 1.6637879,0 0.1469559,5.556e-4 0.266229,-0.118681 0.2656689,-0.265598 V 0.79476682 c 5.551e-4,-0.146918 -0.118713,-0.266159 -0.2656689,-0.265599 -1.5874641,0 -3.1749289,0 -4.76239288,0 z M 2.3630062,1.3238978 c 6.879e-4,-2e-6 0.0014,-2e-6 0.0021,0 0.006,-5e-5 0.01157,-5e-5 0.01757,0 0.144674,0.0016 0.2615469,0.118889 0.2620509,0.2635329 v 0.529647 h 0.52927 c 0.1469622,-5.556e-4 0.2662332,0.1186751 0.265668,0.2655991 -1e-6,0.5813289 -0.477059,1.056195 -1.0585389,1.056195 -0.581481,0 -1.0590561,-0.4748661 -1.0590561,-1.056195 -8.13e-5,-0.5745641 0.4663338,-1.049079 1.0409668,-1.058779 z m 1.6058988,0 h 0.793387 c 0.3529959,-5.292e-4 0.352698,0.5286109 0,0.529648 H 3.968905 c -0.3533831,-0.001 -0.3536879,-0.530163 0,-0.529648 z m -1.8539939,0.789046 c -0.1790869,0.0027 -0.263623,0.121415 -0.2636019,0.269733 0,0.2953649 0.234344,0.527063 0.5297869,0.527063 0.147447,0 0.264007,-0.09833 0.263601,-0.2635311 H 2.3810961 C 2.2348982,2.6467637 2.1154281,2.5288378 2.1149111,2.3826768 Z m 1.8539939,0.0041 h 0.793387 c 0.352847,-9e-7 0.352847,0.52913 0,0.529131 H 3.968905 c -0.353535,-10e-7 -0.353535,-0.5291319 0,-0.529131 z m 0,0.7926621 h 0.793387 c 0.3526509,10e-4 0.3530441,0.530172 0,0.5291319 H 3.968905 c -0.3537339,0.00101 -0.353336,-0.528095 0,-0.5291319 z" id="path2263" style="color:#ffffff;font-style:normal;font-variant:normal;font-weight:normal;font-stretch:normal;font-size:medium;line-height:normal;font-family:sans-serif;font-variant-ligatures:normal;font-variant-position:normal;font-variant-caps:normal;font-variant-numeric:normal;font-variant-alternates:normal;font-variant-east-asian:normal;font-feature-settings:normal;font-variation-settings:normal;text-indent:0;text-align:start;text-decoration:none;text-decoration-line:none;text-decoration-style:solid;text-decoration-color:#ffffff;letter-spacing:normal;word-spacing:normal;text-transform:none;writing-mode:lr-tb;direction:ltr;text-orientation:mixed;dominant-baseline:auto;baseline-shift:baseline;text-anchor:start;white-space:normal;shape-padding:0;shape-margin:0;inline-size:0;clip-rule:nonzero;display:inline;overflow:visible;visibility:visible;opacity:1;isolation:auto;mix-blend-mode:normal;color-interpolation:sRGB;color-interpolation-filters:linearRGB;solid-color:#ffffff;solid-opacity:1;vector-effect:none;fill:#C79A5C;fill-opacity:1;fill-rule:nonzero;stroke:none;stroke-width:0.529201;stroke-linecap:round;stroke-linejoin:round;stroke-miterlimit:4;stroke-dasharray:none;stroke-dashoffset:0;stroke-opacity:1;color-rendering:auto;image-rendering:auto;shape-rendering:auto;text-rendering:auto;enable-background:accumulate;stop-color:#ffffff;stop-opacity:1"/></g></svg>